<svg width="130" height="130" viewBox="0 0 130 130" fill="none" xmlns="http://www.w3.org/2000/svg">
<path d="M130 65C130 100.899 100.899 130 65 130C29.1015 130 0 100.899 0 65C0 29.1015 29.1015 0 65 0C100.899 0 130 29.1015 130 65ZM34.115 65C34.115 82.0573 47.9427 95.885 65 95.885C82.0573 95.885 95.885 82.0573 95.885 65C95.885 47.9427 82.0573 34.115 65 34.115C47.9427 34.115 34.115 47.9427 34.115 65Z" fill="#F1F2F4"/>
<path d="M24.6949 24.6949C29.9879 19.402 36.2715 15.2034 43.187 12.3389C50.1026 9.47435 57.5147 8 65 8C72.4853 8 79.8974 9.47435 86.813 12.3389C93.7285 15.2034 100.012 19.402 105.305 24.6949C110.598 29.9879 114.797 36.2715 117.661 43.187C120.526 50.1026 122 57.5147 122 65C122 72.4853 120.526 79.8974 117.661 86.813C114.797 93.7285 110.598 100.012 105.305 105.305L92.1352 92.1352C95.6986 88.5717 98.5253 84.3413 100.454 79.6854C102.382 75.0296 103.375 70.0395 103.375 65C103.375 59.9605 102.382 54.9704 100.454 50.3146C98.5253 45.6587 95.6986 41.4283 92.1352 37.8648C88.5717 34.3014 84.3413 31.4747 79.6854 29.5462C75.0296 27.6177 70.0395 26.6251 65 26.6251C59.9605 26.6251 54.9704 27.6177 50.3146 29.5462C45.6587 31.4747 41.4283 34.3014 37.8648 37.8648L24.6949 24.6949Z" fill="#0CAF60"/>
<path d="M105.305 105.305C98.2301 112.38 89.4173 117.468 79.7527 120.058C70.088 122.647 59.912 122.647 50.2473 120.058L55.0678 102.067C61.5745 103.811 68.4255 103.811 74.9322 102.067C81.4388 100.324 87.3719 96.8984 92.1352 92.1352L105.305 105.305Z" fill="#0062FF"/>
<path d="M50.2473 120.058C40.5827 117.468 31.7699 112.38 24.6949 105.305C17.6199 98.2301 12.5319 89.4173 9.94223 79.7527C7.35259 70.088 7.35259 59.912 9.94223 50.2473C12.5319 40.5826 17.6199 31.7699 24.6949 24.6949L37.8648 37.8648C33.1016 42.6281 29.6761 48.5612 27.9327 55.0678C26.1892 61.5745 26.1892 68.4255 27.9327 74.9322C29.6761 81.4388 33.1016 87.3719 37.8648 92.1352C42.6281 96.8984 48.5612 100.324 55.0678 102.067L50.2473 120.058Z" fill="#FFD023"/>
</svg>
