<svg width="16" height="16" viewBox="0 0 16 16" fill="none" xmlns="http://www.w3.org/2000/svg">
<g clip-path="url(#clip0_1_1193)">
<path d="M12 6H12.6667C13.3739 6 14.0522 6.28095 14.5523 6.78105C15.0524 7.28115 15.3333 7.95942 15.3333 8.66667C15.3333 9.37391 15.0524 10.0522 14.5523 10.5523C14.0522 11.0524 13.3739 11.3333 12.6667 11.3333H12" stroke="#002855" stroke-width="1.5" stroke-linecap="round" stroke-linejoin="round"/>
<path d="M1.33398 6H12.0007V12C12.0007 12.7072 11.7197 13.3855 11.2196 13.8856C10.7195 14.3857 10.0412 14.6667 9.33398 14.6667H4.00065C3.29341 14.6667 2.61513 14.3857 2.11503 13.8856C1.61494 13.3855 1.33398 12.7072 1.33398 12V6Z" stroke="#002855" stroke-width="1.5" stroke-linecap="round" stroke-linejoin="round"/>
<path d="M4 1.33301V3.33301" stroke="#002855" stroke-width="1.5" stroke-linecap="round" stroke-linejoin="round"/>
<path d="M6.66602 1.33301V3.33301" stroke="#002855" stroke-width="1.5" stroke-linecap="round" stroke-linejoin="round"/>
<path d="M9.33398 1.33301V3.33301" stroke="#002855" stroke-width="1.5" stroke-linecap="round" stroke-linejoin="round"/>
</g>
<defs>
<clipPath id="clip0_1_1193">
<rect width="16" height="16" fill="white"/>
</clipPath>
</defs>
</svg>
