<svg width="18" height="18" viewBox="0 0 18 18" fill="none" xmlns="http://www.w3.org/2000/svg">
<path d="M9 17C4.58171 17 1 13.4183 1 9C1 4.58171 4.58171 1 9 1C13.4183 1 17 4.58171 17 9C17 13.4183 13.4183 17 9 17Z" stroke="black" stroke-width="1.5"/>
<mask id="path-2-inside-1_1_1121" fill="white">
<path d="M7.58601 10.6903L6.17172 9.276C5.91145 9.01573 5.48923 9.01573 5.22898 9.276C4.9686 9.53638 4.9686 9.95848 5.22898 10.2189L7.11458 12.1045C7.24471 12.2346 7.41535 12.2997 7.58601 12.2997C7.75654 12.2997 7.92718 12.2346 8.05732 12.1045L12.7713 7.39045C13.0317 7.13007 13.0317 6.70797 12.7713 6.44771C12.5111 6.18733 12.0888 6.18733 11.8286 6.44771L7.58601 10.6903Z"/>
</mask>
<path d="M7.58601 10.6903L6.52535 11.7509L7.58601 12.8116L8.64667 11.7509L7.58601 10.6903ZM6.17172 9.276L5.11106 10.3367L5.11106 10.3367L6.17172 9.276ZM5.22898 9.276L6.28964 10.3367L6.28966 10.3366L5.22898 9.276ZM5.22898 10.2189L6.28964 9.15819L6.28962 9.15818L5.22898 10.2189ZM7.11458 12.1045L8.17524 11.0438H8.17524L7.11458 12.1045ZM8.05732 12.1045L9.11794 13.1651L9.11798 13.1651L8.05732 12.1045ZM12.7713 7.39045L13.832 8.45111L12.7713 7.39045ZM12.7713 6.44771L11.7104 7.50814L11.7109 7.50862L12.7713 6.44771ZM11.8286 6.44771L12.8892 7.50837L12.8895 7.50812L11.8286 6.44771ZM8.64667 9.62962L7.23238 8.21534L5.11106 10.3367L6.52535 11.7509L8.64667 9.62962ZM7.23238 8.21534C6.38634 7.36929 5.01435 7.36926 4.16829 8.21536L6.28966 10.3366C5.96411 10.6622 5.43656 10.6622 5.11106 10.3367L7.23238 8.21534ZM4.16832 8.21534C3.32216 9.06149 3.32213 10.4334 4.16833 11.2795L6.28962 9.15818C6.61506 9.48361 6.61503 10.0113 6.28964 10.3367L4.16832 8.21534ZM4.16832 11.2795L6.05392 13.1651L8.17524 11.0438L6.28964 9.15819L4.16832 11.2795ZM6.05392 13.1651C6.47685 13.5881 7.03409 13.7997 7.58601 13.7997V10.7997C7.79661 10.7997 8.01257 10.8811 8.17524 11.0438L6.05392 13.1651ZM7.58601 13.7997C8.13797 13.7997 8.69512 13.5879 9.11794 13.1651L6.99669 11.0438C7.15923 10.8812 7.37512 10.7997 7.58601 10.7997V13.7997ZM9.11798 13.1651L13.832 8.45111L11.7107 6.32979L6.99666 11.0438L9.11798 13.1651ZM13.832 8.45111C14.678 7.60509 14.6784 6.23304 13.8317 5.3868L11.7109 7.50862C11.385 7.1829 11.3854 6.65506 11.7107 6.32979L13.832 8.45111ZM13.8322 5.38728C12.9861 4.54082 11.6138 4.54079 10.7677 5.3873L12.8895 7.50812C12.5639 7.83387 12.036 7.83384 11.7104 7.50814L13.8322 5.38728ZM10.7679 5.38705L6.52535 9.62962L8.64667 11.7509L12.8892 7.50837L10.7679 5.38705Z" fill="black" mask="url(#path-2-inside-1_1_1121)"/>
</svg>
