<svg width="18" height="19" viewBox="0 0 18 19" fill="none" xmlns="http://www.w3.org/2000/svg">
<g id="Health Package">
<path id="Vector" d="M17.6581 4.69028L16.1065 0.780394C16.0444 0.59424 15.8582 0.501163 15.6721 0.501163L10.5209 0.500946H2.01828C1.83213 0.500946 1.64597 0.624977 1.58386 0.780178L0.0322938 4.69006C-0.0298297 4.84526 0.00134114 5.00046 0.0944178 5.12449C0.187495 5.24852 0.311742 5.34181 0.466726 5.34181H7.01432C7.2626 5.34181 7.44875 5.15566 7.4797 4.90739L7.51066 4.72123H10.2103L10.2413 4.90739C10.2722 5.15566 10.4586 5.34181 10.7067 5.34181H17.2238C17.379 5.34181 17.5342 5.27969 17.5961 5.12449C17.6894 5.00046 17.7203 4.84547 17.6582 4.69028H17.6581ZM6.57992 4.41105H1.14945L2.3287 1.43193H6.85937L6.57992 4.41105ZM11.1104 4.41105L10.8311 1.43193H15.3618L16.5411 4.41105H11.1104ZM17.2235 4.41105H0.466654C0.218377 4.41105 0.00127364 4.62837 0.00127364 4.87643V18.0337C0.00127364 18.282 0.218598 18.4991 0.466654 18.4991H17.2235C17.4718 18.4991 17.6889 18.2817 17.6889 18.0337L17.6891 4.87643C17.6891 4.5972 17.4718 4.41105 17.2235 4.41105ZM16.7582 17.5683H0.932212V5.34198H6.5799V13.1308L8.84513 11.5793L11.1104 13.1308V5.34198H16.758L16.7582 17.5683Z" fill="#002855"/>
</g>
</svg>
