<svg width="16" height="16" viewBox="0 0 16 16" fill="none" xmlns="http://www.w3.org/2000/svg">
<path fill-rule="evenodd" clip-rule="evenodd" d="M7.99998 14.6667C11.6819 14.6667 14.6666 11.6819 14.6666 8.00001C14.6666 4.31811 11.6819 1.33334 7.99998 1.33334C4.31808 1.33334 1.33331 4.31811 1.33331 8.00001C1.33331 11.6819 4.31808 14.6667 7.99998 14.6667ZM8.49998 5.33334C8.49998 5.0572 8.27612 4.83334 7.99998 4.83334C7.72384 4.83334 7.49998 5.0572 7.49998 5.33334V6.00001C7.49998 6.27615 7.72384 6.50001 7.99998 6.50001C8.27612 6.50001 8.49998 6.27615 8.49998 6.00001V5.33334ZM8.49998 7.66668C8.49998 7.39053 8.27612 7.16668 7.99998 7.16668C7.72384 7.16668 7.49998 7.39053 7.49998 7.66668V10.6667C7.49998 10.9428 7.72384 11.1667 7.99998 11.1667C8.27612 11.1667 8.49998 10.9428 8.49998 10.6667V7.66668Z" fill="#6B7280"/>
</svg>
