<svg width="28" height="22" viewBox="0 0 28 22" fill="none" xmlns="http://www.w3.org/2000/svg">
<g clip-path="url(#clip0_1_1009)">
<path d="M5.07485 21.9518V20.4918C5.07485 19.9333 4.73858 19.5675 4.16132 19.5675C3.87269 19.5675 3.55884 19.6639 3.34307 19.9814C3.17493 19.715 2.93394 19.5675 2.57245 19.5675C2.33146 19.5675 2.09046 19.6412 1.89991 19.9077V19.6157H1.39551V21.9518H1.89991V20.6619C1.89991 20.2479 2.11568 20.0523 2.45195 20.0523C2.78822 20.0523 2.95636 20.2706 2.95636 20.6619V21.9518H3.46076V20.6619C3.46076 20.2479 3.70175 20.0523 4.0128 20.0523C4.34907 20.0523 4.5172 20.2706 4.5172 20.6619V21.9518H5.07485ZM12.5568 19.6157H11.7386V18.9098H11.2342V19.6157H10.7774V20.0778H11.2342V21.1495C11.2342 21.6853 11.45 22 12.0272 22C12.243 22 12.484 21.9263 12.6521 21.8299L12.5064 21.3905C12.3607 21.4869 12.1925 21.5124 12.072 21.5124C11.8311 21.5124 11.7358 21.365 11.7358 21.124V20.0778H12.554V19.6157H12.5568ZM16.8387 19.5647C16.55 19.5647 16.3567 19.7121 16.2362 19.9049V19.6129H15.7318V21.949H16.2362V20.6335C16.2362 20.2451 16.4043 20.024 16.7182 20.024C16.8134 20.024 16.9339 20.0495 17.032 20.0722L17.1777 19.5845C17.0769 19.5647 16.9339 19.5647 16.8387 19.5647ZM10.3683 19.8085C10.1273 19.6384 9.79102 19.5647 9.42953 19.5647C8.85227 19.5647 8.46837 19.8567 8.46837 20.3188C8.46837 20.7072 8.757 20.9284 9.2614 20.9992L9.50239 21.0247C9.7658 21.0729 9.91152 21.1467 9.91152 21.2686C9.91152 21.4387 9.71817 21.5606 9.3819 21.5606C9.04563 21.5606 8.77941 21.4387 8.61128 21.3168L8.37029 21.7052C8.6337 21.9008 8.99519 21.9972 9.35668 21.9972C10.0292 21.9972 10.4159 21.6796 10.4159 21.243C10.4159 20.8291 10.1021 20.6108 9.62289 20.5371L9.3819 20.5116C9.16612 20.4861 8.99799 20.4379 8.99799 20.2933C8.99799 20.1232 9.16612 20.0268 9.43234 20.0268C9.72097 20.0268 10.0096 20.1487 10.1553 20.2224L10.3683 19.8085ZM23.7882 19.5647C23.4996 19.5647 23.3062 19.7121 23.1857 19.9049V19.6129H22.6813V21.949H23.1857V20.6335C23.1857 20.2451 23.3539 20.024 23.6677 20.024C23.763 20.024 23.8835 20.0495 23.9816 20.0722L24.1273 19.5902C24.0292 19.5647 23.8863 19.5647 23.7882 19.5647ZM17.3431 20.7838C17.3431 21.4897 17.8251 22 18.5704 22C18.9067 22 19.1477 21.9263 19.3887 21.7335L19.1477 21.3196C18.9544 21.467 18.7638 21.5379 18.5452 21.5379C18.1361 21.5379 17.8475 21.2459 17.8475 20.7838C17.8475 20.3443 18.1361 20.0523 18.5452 20.0296C18.761 20.0296 18.9544 20.1034 19.1477 20.2479L19.3887 19.834C19.1477 19.6384 18.9067 19.5675 18.5704 19.5675C17.8251 19.5647 17.3431 20.0778 17.3431 20.7838ZM22.0088 20.7838V19.6157H21.5044V19.9077C21.3363 19.6894 21.0953 19.5675 20.7814 19.5675C20.1313 19.5675 19.6269 20.0778 19.6269 20.7838C19.6269 21.4897 20.1313 22 20.7814 22C21.1177 22 21.3587 21.8781 21.5044 21.6598V21.9518H22.0088V20.7838ZM20.1565 20.7838C20.1565 20.3698 20.4199 20.0296 20.8543 20.0296C21.2634 20.0296 21.552 20.3472 21.552 20.7838C21.552 21.1977 21.2634 21.5379 20.8543 21.5379C20.4227 21.5124 20.1565 21.1948 20.1565 20.7838ZM14.1205 19.5647C13.4479 19.5647 12.966 20.0523 12.966 20.7809C12.966 21.5124 13.4479 21.9972 14.1457 21.9972C14.482 21.9972 14.8182 21.9008 15.0845 21.6796L14.8435 21.3139C14.6501 21.4613 14.4091 21.5577 14.1709 21.5577C13.8571 21.5577 13.546 21.4103 13.4732 20.9992H15.1797C15.1797 20.9255 15.1797 20.8773 15.1797 20.8036C15.2022 20.0523 14.7678 19.5647 14.1205 19.5647ZM14.1205 20.0041C14.4343 20.0041 14.6501 20.1997 14.6977 20.5626H13.4956C13.5432 20.2479 13.759 20.0041 14.1205 20.0041ZM26.6521 20.7838V18.6915H26.1477V19.9077C25.9796 19.6894 25.7386 19.5675 25.4247 19.5675C24.7746 19.5675 24.2702 20.0778 24.2702 20.7838C24.2702 21.4897 24.7746 22 25.4247 22C25.761 22 26.002 21.8781 26.1477 21.6598V21.9518H26.6521V20.7838ZM24.7998 20.7838C24.7998 20.3698 25.0632 20.0296 25.4976 20.0296C25.9067 20.0296 26.1953 20.3472 26.1953 20.7838C26.1953 21.1977 25.9067 21.5379 25.4976 21.5379C25.0632 21.5124 24.7998 21.1948 24.7998 20.7838ZM7.91352 20.7838V19.6157H7.40912V19.9077C7.24098 19.6894 6.99999 19.5675 6.68614 19.5675C6.03602 19.5675 5.53162 20.0778 5.53162 20.7838C5.53162 21.4897 6.03602 22 6.68614 22C7.02241 22 7.2634 21.8781 7.40912 21.6598V21.9518H7.91352V20.7838ZM6.03882 20.7838C6.03882 20.3698 6.30223 20.0296 6.73658 20.0296C7.14571 20.0296 7.43434 20.3472 7.43434 20.7838C7.43434 21.1977 7.14571 21.5379 6.73658 21.5379C6.30223 21.5124 6.03882 21.1948 6.03882 20.7838Z" fill="black"/>
<path d="M17.7775 1.875H10.2002V15.6477H17.7775V1.875Z" fill="#FF5A00"/>
<path d="M10.7046 8.76031C10.7046 5.96211 12.0048 3.47861 14 1.87397C12.5316 0.705928 10.6793 0 8.65893 0C3.8727 0 0 3.91804 0 8.76031C0 13.6026 3.8727 17.5206 8.65893 17.5206C10.6793 17.5206 12.5316 16.8147 14 15.6467C12.002 14.0647 10.7046 11.5585 10.7046 8.76031Z" fill="#EB001B"/>
<path d="M28 8.76031C28 13.6026 24.1273 17.5206 19.3411 17.5206C17.3207 17.5206 15.4684 16.8147 14 15.6467C16.0204 14.0392 17.2954 11.5585 17.2954 8.76031C17.2954 5.96211 15.9952 3.47861 14 1.87397C15.4656 0.705928 17.3179 0 19.3383 0C24.1273 0 28 3.94356 28 8.76031Z" fill="#F79E1B"/>
</g>
<defs>
<clipPath id="clip0_1_1009">
<rect width="28" height="22" fill="white"/>
</clipPath>
</defs>
</svg>
